# xmcd
#
# Track frame offsets:
# 150
# 13743
# 37709
# 50218
#
# Disc length: 884 seconds
#
#
# Revision: 0
# Processed by: cddbd v1.5.2PL0 Copyright (c) Steve Scherf et al.
# Submitted via: FreeRIP 2.951 
#
DISCID=2a037204
DTITLE=Hampton the hamster - 
DYEAR=1900
DGENRE=Country
TTITLE0=Thank good I´m a country boy
TTITLE1=Thank good I´m a country boy
TTITLE2=Thank good I´m a country boy
TTITLE3=The Hamsterdance Song
EXTD=
EXTT0=radio edit
EXTT1=extended version
EXTT2=album edit
EXTT3=
PLAYORDER=
